<mxfile host="app.diagrams.net" agent="Mozilla/5.0 (Windows NT 10.0; Win64; x64) AppleWebKit/537.36 (KHTML, like Gecko) Chrome/133.0.0.0 Safari/537.36" version="26.1.0">
  <diagram id="C5RBs43oDa-KdzZeNtuy" name="Page-1">
    <mxGraphModel dx="1326" dy="735" grid="1" gridSize="10" guides="1" tooltips="1" connect="1" arrows="1" fold="1" page="1" pageScale="1" pageWidth="827" pageHeight="1169" math="0" shadow="0">
      <root>
        <mxCell id="WIyWlLk6GJQsqaUBKTNV-0" />
        <mxCell id="WIyWlLk6GJQsqaUBKTNV-1" parent="WIyWlLk6GJQsqaUBKTNV-0" />
        <mxCell id="WIyWlLk6GJQsqaUBKTNV-2" value="" style="rounded=0;html=1;jettySize=auto;orthogonalLoop=1;fontSize=11;endArrow=block;endFill=0;endSize=8;strokeWidth=1;shadow=0;labelBackgroundColor=none;edgeStyle=orthogonalEdgeStyle;" parent="WIyWlLk6GJQsqaUBKTNV-1" source="WIyWlLk6GJQsqaUBKTNV-3" target="WIyWlLk6GJQsqaUBKTNV-6" edge="1">
          <mxGeometry relative="1" as="geometry" />
        </mxCell>
        <mxCell id="WIyWlLk6GJQsqaUBKTNV-3" value="Берем телефон в руки" style="rounded=1;whiteSpace=wrap;html=1;fontSize=12;glass=0;strokeWidth=1;shadow=0;" parent="WIyWlLk6GJQsqaUBKTNV-1" vertex="1">
          <mxGeometry x="10" y="40" width="120" height="40" as="geometry" />
        </mxCell>
        <mxCell id="WIyWlLk6GJQsqaUBKTNV-4" value="" style="rounded=0;html=1;jettySize=auto;orthogonalLoop=1;fontSize=11;endArrow=block;endFill=0;endSize=8;strokeWidth=1;shadow=0;labelBackgroundColor=none;edgeStyle=orthogonalEdgeStyle;" parent="WIyWlLk6GJQsqaUBKTNV-1" source="WIyWlLk6GJQsqaUBKTNV-6" target="WIyWlLk6GJQsqaUBKTNV-10" edge="1">
          <mxGeometry y="20" relative="1" as="geometry">
            <mxPoint as="offset" />
          </mxGeometry>
        </mxCell>
        <mxCell id="WIyWlLk6GJQsqaUBKTNV-6" value="Включаем его&amp;nbsp;" style="rhombus;whiteSpace=wrap;html=1;shadow=0;fontFamily=Helvetica;fontSize=12;align=center;strokeWidth=1;spacing=6;spacingTop=-4;" parent="WIyWlLk6GJQsqaUBKTNV-1" vertex="1">
          <mxGeometry x="250" y="20" width="100" height="80" as="geometry" />
        </mxCell>
        <mxCell id="WIyWlLk6GJQsqaUBKTNV-8" value="Ввели верно" style="rounded=0;html=1;jettySize=auto;orthogonalLoop=1;fontSize=11;endArrow=block;endFill=0;endSize=8;strokeWidth=1;shadow=0;labelBackgroundColor=none;edgeStyle=orthogonalEdgeStyle;" parent="WIyWlLk6GJQsqaUBKTNV-1" source="WIyWlLk6GJQsqaUBKTNV-10" target="WIyWlLk6GJQsqaUBKTNV-11" edge="1">
          <mxGeometry x="0.3333" y="40" relative="1" as="geometry">
            <mxPoint as="offset" />
          </mxGeometry>
        </mxCell>
        <mxCell id="WIyWlLk6GJQsqaUBKTNV-9" value="Ввели неверно" style="edgeStyle=orthogonalEdgeStyle;rounded=0;html=1;jettySize=auto;orthogonalLoop=1;fontSize=11;endArrow=block;endFill=0;endSize=8;strokeWidth=1;shadow=0;labelBackgroundColor=none;" parent="WIyWlLk6GJQsqaUBKTNV-1" source="WIyWlLk6GJQsqaUBKTNV-10" target="ChNtr4Wakk8aRYCCZJp0-3" edge="1">
          <mxGeometry y="10" relative="1" as="geometry">
            <mxPoint as="offset" />
            <mxPoint x="480" y="250" as="targetPoint" />
            <Array as="points">
              <mxPoint x="530" y="200" />
            </Array>
          </mxGeometry>
        </mxCell>
        <mxCell id="WIyWlLk6GJQsqaUBKTNV-10" value="Вводим пин-код" style="rhombus;whiteSpace=wrap;html=1;shadow=0;fontFamily=Helvetica;fontSize=12;align=center;strokeWidth=1;spacing=6;spacingTop=-4;" parent="WIyWlLk6GJQsqaUBKTNV-1" vertex="1">
          <mxGeometry x="250" y="160" width="100" height="80" as="geometry" />
        </mxCell>
        <mxCell id="ChNtr4Wakk8aRYCCZJp0-19" value="" style="edgeStyle=orthogonalEdgeStyle;rounded=0;orthogonalLoop=1;jettySize=auto;html=1;" edge="1" parent="WIyWlLk6GJQsqaUBKTNV-1" source="WIyWlLk6GJQsqaUBKTNV-11" target="ChNtr4Wakk8aRYCCZJp0-18">
          <mxGeometry relative="1" as="geometry" />
        </mxCell>
        <mxCell id="WIyWlLk6GJQsqaUBKTNV-11" value="Заходим в меню и открываем приложение банка" style="rounded=1;whiteSpace=wrap;html=1;fontSize=12;glass=0;strokeWidth=1;shadow=0;" parent="WIyWlLk6GJQsqaUBKTNV-1" vertex="1">
          <mxGeometry x="60" y="250" width="120" height="40" as="geometry" />
        </mxCell>
        <mxCell id="ChNtr4Wakk8aRYCCZJp0-49" style="edgeStyle=orthogonalEdgeStyle;rounded=0;orthogonalLoop=1;jettySize=auto;html=1;" edge="1" parent="WIyWlLk6GJQsqaUBKTNV-1" source="ChNtr4Wakk8aRYCCZJp0-3" target="ChNtr4Wakk8aRYCCZJp0-47">
          <mxGeometry relative="1" as="geometry" />
        </mxCell>
        <mxCell id="ChNtr4Wakk8aRYCCZJp0-50" value="Да" style="edgeLabel;html=1;align=center;verticalAlign=middle;resizable=0;points=[];" vertex="1" connectable="0" parent="ChNtr4Wakk8aRYCCZJp0-49">
          <mxGeometry x="-0.9056" y="4" relative="1" as="geometry">
            <mxPoint as="offset" />
          </mxGeometry>
        </mxCell>
        <mxCell id="ChNtr4Wakk8aRYCCZJp0-3" value="Ошибка более 3х раз?" style="rhombus;whiteSpace=wrap;html=1;" vertex="1" parent="WIyWlLk6GJQsqaUBKTNV-1">
          <mxGeometry x="490" y="230" width="80" height="80" as="geometry" />
        </mxCell>
        <mxCell id="ChNtr4Wakk8aRYCCZJp0-4" value="&amp;nbsp;" style="edgeStyle=orthogonalEdgeStyle;rounded=0;html=1;jettySize=auto;orthogonalLoop=1;fontSize=11;endArrow=block;endFill=0;endSize=8;strokeWidth=1;shadow=0;labelBackgroundColor=none;entryX=0.5;entryY=0;entryDx=0;entryDy=0;exitX=1;exitY=0.5;exitDx=0;exitDy=0;" edge="1" parent="WIyWlLk6GJQsqaUBKTNV-1" source="ChNtr4Wakk8aRYCCZJp0-3" target="WIyWlLk6GJQsqaUBKTNV-10">
          <mxGeometry y="10" relative="1" as="geometry">
            <mxPoint as="offset" />
            <mxPoint x="600" y="270" as="sourcePoint" />
            <mxPoint x="310" y="160" as="targetPoint" />
            <Array as="points">
              <mxPoint x="570" y="272" />
              <mxPoint x="600" y="272" />
              <mxPoint x="600" y="160" />
            </Array>
          </mxGeometry>
        </mxCell>
        <mxCell id="ChNtr4Wakk8aRYCCZJp0-13" value="нет" style="text;html=1;align=center;verticalAlign=middle;resizable=0;points=[];autosize=1;strokeColor=none;fillColor=none;" vertex="1" parent="WIyWlLk6GJQsqaUBKTNV-1">
          <mxGeometry x="490" y="158" width="40" height="30" as="geometry" />
        </mxCell>
        <mxCell id="ChNtr4Wakk8aRYCCZJp0-21" value="" style="edgeStyle=orthogonalEdgeStyle;rounded=0;orthogonalLoop=1;jettySize=auto;html=1;" edge="1" parent="WIyWlLk6GJQsqaUBKTNV-1" source="ChNtr4Wakk8aRYCCZJp0-18" target="ChNtr4Wakk8aRYCCZJp0-20">
          <mxGeometry relative="1" as="geometry" />
        </mxCell>
        <mxCell id="ChNtr4Wakk8aRYCCZJp0-18" value="Переходим на вкладку &quot;Платежи&quot;" style="rounded=1;whiteSpace=wrap;html=1;fontSize=12;glass=0;strokeWidth=1;shadow=0;" vertex="1" parent="WIyWlLk6GJQsqaUBKTNV-1">
          <mxGeometry x="60" y="330" width="120" height="40" as="geometry" />
        </mxCell>
        <mxCell id="ChNtr4Wakk8aRYCCZJp0-23" value="" style="edgeStyle=orthogonalEdgeStyle;rounded=0;orthogonalLoop=1;jettySize=auto;html=1;" edge="1" parent="WIyWlLk6GJQsqaUBKTNV-1" source="ChNtr4Wakk8aRYCCZJp0-20" target="ChNtr4Wakk8aRYCCZJp0-22">
          <mxGeometry relative="1" as="geometry" />
        </mxCell>
        <mxCell id="ChNtr4Wakk8aRYCCZJp0-20" value="Выбираем раздел &quot;Мобильная связь&quot;" style="rounded=1;whiteSpace=wrap;html=1;fontSize=12;glass=0;strokeWidth=1;shadow=0;" vertex="1" parent="WIyWlLk6GJQsqaUBKTNV-1">
          <mxGeometry x="60" y="410" width="120" height="40" as="geometry" />
        </mxCell>
        <mxCell id="ChNtr4Wakk8aRYCCZJp0-25" value="" style="edgeStyle=orthogonalEdgeStyle;rounded=0;orthogonalLoop=1;jettySize=auto;html=1;" edge="1" parent="WIyWlLk6GJQsqaUBKTNV-1" source="ChNtr4Wakk8aRYCCZJp0-22" target="ChNtr4Wakk8aRYCCZJp0-24">
          <mxGeometry relative="1" as="geometry" />
        </mxCell>
        <mxCell id="ChNtr4Wakk8aRYCCZJp0-22" value="Вводим номер телефона" style="rounded=1;whiteSpace=wrap;html=1;fontSize=12;glass=0;strokeWidth=1;shadow=0;" vertex="1" parent="WIyWlLk6GJQsqaUBKTNV-1">
          <mxGeometry x="60" y="490" width="120" height="40" as="geometry" />
        </mxCell>
        <mxCell id="ChNtr4Wakk8aRYCCZJp0-27" value="" style="edgeStyle=orthogonalEdgeStyle;rounded=0;orthogonalLoop=1;jettySize=auto;html=1;" edge="1" parent="WIyWlLk6GJQsqaUBKTNV-1" source="ChNtr4Wakk8aRYCCZJp0-24">
          <mxGeometry relative="1" as="geometry">
            <mxPoint x="120" y="650" as="targetPoint" />
          </mxGeometry>
        </mxCell>
        <mxCell id="ChNtr4Wakk8aRYCCZJp0-28" value="Да" style="edgeLabel;html=1;align=center;verticalAlign=middle;resizable=0;points=[];" vertex="1" connectable="0" parent="ChNtr4Wakk8aRYCCZJp0-27">
          <mxGeometry x="0.4182" relative="1" as="geometry">
            <mxPoint as="offset" />
          </mxGeometry>
        </mxCell>
        <mxCell id="ChNtr4Wakk8aRYCCZJp0-30" value="" style="edgeStyle=orthogonalEdgeStyle;rounded=0;orthogonalLoop=1;jettySize=auto;html=1;" edge="1" parent="WIyWlLk6GJQsqaUBKTNV-1" source="ChNtr4Wakk8aRYCCZJp0-24" target="ChNtr4Wakk8aRYCCZJp0-29">
          <mxGeometry relative="1" as="geometry" />
        </mxCell>
        <mxCell id="ChNtr4Wakk8aRYCCZJp0-31" value="Нет" style="edgeLabel;html=1;align=center;verticalAlign=middle;resizable=0;points=[];" vertex="1" connectable="0" parent="ChNtr4Wakk8aRYCCZJp0-30">
          <mxGeometry x="-0.2397" relative="1" as="geometry">
            <mxPoint as="offset" />
          </mxGeometry>
        </mxCell>
        <mxCell id="ChNtr4Wakk8aRYCCZJp0-34" value="" style="edgeStyle=orthogonalEdgeStyle;rounded=0;orthogonalLoop=1;jettySize=auto;html=1;" edge="1" parent="WIyWlLk6GJQsqaUBKTNV-1" source="ChNtr4Wakk8aRYCCZJp0-24" target="ChNtr4Wakk8aRYCCZJp0-33">
          <mxGeometry relative="1" as="geometry" />
        </mxCell>
        <mxCell id="ChNtr4Wakk8aRYCCZJp0-24" value="Ввели верно?" style="rhombus;whiteSpace=wrap;html=1;rounded=1;glass=0;strokeWidth=1;shadow=0;" vertex="1" parent="WIyWlLk6GJQsqaUBKTNV-1">
          <mxGeometry x="80" y="545" width="80" height="80" as="geometry" />
        </mxCell>
        <mxCell id="ChNtr4Wakk8aRYCCZJp0-32" style="edgeStyle=orthogonalEdgeStyle;rounded=0;orthogonalLoop=1;jettySize=auto;html=1;entryX=1;entryY=0.5;entryDx=0;entryDy=0;" edge="1" parent="WIyWlLk6GJQsqaUBKTNV-1" source="ChNtr4Wakk8aRYCCZJp0-29" target="ChNtr4Wakk8aRYCCZJp0-22">
          <mxGeometry relative="1" as="geometry">
            <Array as="points">
              <mxPoint x="278" y="510" />
            </Array>
          </mxGeometry>
        </mxCell>
        <mxCell id="ChNtr4Wakk8aRYCCZJp0-29" value="Смотрим, где ошибка" style="whiteSpace=wrap;html=1;rounded=1;glass=0;strokeWidth=1;shadow=0;" vertex="1" parent="WIyWlLk6GJQsqaUBKTNV-1">
          <mxGeometry x="220" y="560" width="114.89" height="47" as="geometry" />
        </mxCell>
        <mxCell id="ChNtr4Wakk8aRYCCZJp0-36" value="" style="edgeStyle=orthogonalEdgeStyle;rounded=0;orthogonalLoop=1;jettySize=auto;html=1;" edge="1" parent="WIyWlLk6GJQsqaUBKTNV-1" source="ChNtr4Wakk8aRYCCZJp0-33" target="ChNtr4Wakk8aRYCCZJp0-35">
          <mxGeometry relative="1" as="geometry" />
        </mxCell>
        <mxCell id="ChNtr4Wakk8aRYCCZJp0-37" value="На счете есть деньги" style="edgeLabel;html=1;align=center;verticalAlign=middle;resizable=0;points=[];" vertex="1" connectable="0" parent="ChNtr4Wakk8aRYCCZJp0-36">
          <mxGeometry x="-0.1333" relative="1" as="geometry">
            <mxPoint as="offset" />
          </mxGeometry>
        </mxCell>
        <mxCell id="ChNtr4Wakk8aRYCCZJp0-39" value="" style="edgeStyle=orthogonalEdgeStyle;rounded=0;orthogonalLoop=1;jettySize=auto;html=1;" edge="1" parent="WIyWlLk6GJQsqaUBKTNV-1" source="ChNtr4Wakk8aRYCCZJp0-33" target="ChNtr4Wakk8aRYCCZJp0-38">
          <mxGeometry relative="1" as="geometry" />
        </mxCell>
        <mxCell id="ChNtr4Wakk8aRYCCZJp0-40" value="На счете нет денег" style="edgeLabel;html=1;align=center;verticalAlign=middle;resizable=0;points=[];" vertex="1" connectable="0" parent="ChNtr4Wakk8aRYCCZJp0-39">
          <mxGeometry x="-0.2769" y="3" relative="1" as="geometry">
            <mxPoint as="offset" />
          </mxGeometry>
        </mxCell>
        <mxCell id="ChNtr4Wakk8aRYCCZJp0-33" value="Вводим сумму &quot;100&quot;" style="rhombus;whiteSpace=wrap;html=1;rounded=1;glass=0;strokeWidth=1;shadow=0;" vertex="1" parent="WIyWlLk6GJQsqaUBKTNV-1">
          <mxGeometry x="80" y="670" width="90" height="80" as="geometry" />
        </mxCell>
        <mxCell id="ChNtr4Wakk8aRYCCZJp0-44" value="" style="edgeStyle=orthogonalEdgeStyle;rounded=0;orthogonalLoop=1;jettySize=auto;html=1;" edge="1" parent="WIyWlLk6GJQsqaUBKTNV-1" source="ChNtr4Wakk8aRYCCZJp0-35" target="ChNtr4Wakk8aRYCCZJp0-43">
          <mxGeometry relative="1" as="geometry" />
        </mxCell>
        <mxCell id="ChNtr4Wakk8aRYCCZJp0-35" value="Подтверждаем оплату" style="whiteSpace=wrap;html=1;rounded=1;glass=0;strokeWidth=1;shadow=0;" vertex="1" parent="WIyWlLk6GJQsqaUBKTNV-1">
          <mxGeometry x="65" y="840" width="120" height="60" as="geometry" />
        </mxCell>
        <mxCell id="ChNtr4Wakk8aRYCCZJp0-48" value="" style="edgeStyle=orthogonalEdgeStyle;rounded=0;orthogonalLoop=1;jettySize=auto;html=1;" edge="1" parent="WIyWlLk6GJQsqaUBKTNV-1" source="ChNtr4Wakk8aRYCCZJp0-38" target="ChNtr4Wakk8aRYCCZJp0-47">
          <mxGeometry relative="1" as="geometry" />
        </mxCell>
        <mxCell id="ChNtr4Wakk8aRYCCZJp0-38" value="Закрываем приложение" style="whiteSpace=wrap;html=1;rounded=1;glass=0;strokeWidth=1;shadow=0;" vertex="1" parent="WIyWlLk6GJQsqaUBKTNV-1">
          <mxGeometry x="230" y="990" width="120" height="60" as="geometry" />
        </mxCell>
        <mxCell id="ChNtr4Wakk8aRYCCZJp0-45" style="edgeStyle=orthogonalEdgeStyle;rounded=0;orthogonalLoop=1;jettySize=auto;html=1;" edge="1" parent="WIyWlLk6GJQsqaUBKTNV-1" source="ChNtr4Wakk8aRYCCZJp0-43" target="ChNtr4Wakk8aRYCCZJp0-38">
          <mxGeometry relative="1" as="geometry" />
        </mxCell>
        <mxCell id="ChNtr4Wakk8aRYCCZJp0-43" value="Ждем уведомление об оплате" style="whiteSpace=wrap;html=1;rounded=1;glass=0;strokeWidth=1;shadow=0;" vertex="1" parent="WIyWlLk6GJQsqaUBKTNV-1">
          <mxGeometry x="65" y="940" width="120" height="60" as="geometry" />
        </mxCell>
        <mxCell id="ChNtr4Wakk8aRYCCZJp0-47" value="Блокируем телефон" style="whiteSpace=wrap;html=1;rounded=1;glass=0;strokeWidth=1;shadow=0;" vertex="1" parent="WIyWlLk6GJQsqaUBKTNV-1">
          <mxGeometry x="390" y="1120" width="120" height="60" as="geometry" />
        </mxCell>
      </root>
    </mxGraphModel>
  </diagram>
</mxfile>
